<?xml version="1.0" standalone="no"?><svg xmlns="http://www.w3.org/2000/svg" viewBox="0 0 1440 320"><path fill="#0099ff" fill-opacity="1" d="M0,96L34.3,90.7C68.6,85,137,75,206,106.7C274.3,139,343,213,411,250.7C480,288,549,288,617,240C685.7,192,754,96,823,53.3C891.4,11,960,21,1029,64C1097.1,107,1166,181,1234,224C1302.9,267,1371,277,1406,282.7L1440,288L1440,320L1405.7,320C1371.4,320,1303,320,1234,320C1165.7,320,1097,320,1029,320C960,320,891,320,823,320C754.3,320,686,320,617,320C548.6,320,480,320,411,320C342.9,320,274,320,206,320C137.1,320,69,320,34,320L0,320Z"></path></svg>